<?xml version="1.0" encoding="UTF-8"?>
<svg version="1.1" xmlns="http://www.w3.org/2000/svg" width="200" height="200">
<path d="M0 0 C66 0 132 0 200 0 C200 17.82 200 35.64 200 54 C134 54 68 54 0 54 C0 36.18 0 18.36 0 0 Z " fill="#FDFCFC" transform="translate(0,73)"/>
<path d="M0 0 C2.86972996 1.99633389 4.65210765 3.47229883 5.44921875 6.97265625 C5.63063966 10.3195592 5.22262069 12.62896551 3.5 15.5 C-0.04017056 17.62410234 -2.97481725 17.7835909 -7 17 C-9.5 15.5625 -9.5 15.5625 -11 13 C-11.60303852 9.8699429 -11.65919094 7.12399182 -11 4 C-7.79382821 0.13373402 -4.93752469 -0.92578588 0 0 Z " fill="#FBFBFB" transform="translate(51,88)"/>
<path d="M0 0 C8 0 8 0 10.9375 1.5625 C13.65361118 4.77244958 14 6.82044153 14 11 C12.65437601 13.94755732 11.91445456 15.54277272 9 17 C5.99525503 17.13559318 3.00931153 17.04299016 0 17 C0 11.39 0 5.78 0 0 Z " fill="#F7F6F6" transform="translate(103,88)"/>
<path d="M0 0 C1.423125 -0.061875 2.84625 -0.12375 4.3125 -0.1875 C5.51326172 -0.23970703 5.51326172 -0.23970703 6.73828125 -0.29296875 C9 0 9 0 10.76953125 1.32421875 C12.6691714 3.91134772 12.38880875 5.88952999 12 9 C10.5 10.875 10.5 10.875 9 12 C10.32 13.65 11.64 15.3 13 17 C11.1875 16.75 11.1875 16.75 9 16 C7.5 14 7.5 14 6 12 C3.90584196 11.20376178 3.90584196 11.20376178 2 11 C2 12.98 2 14.96 2 17 C1.34 17 0.68 17 0 17 C0 11.39 0 5.78 0 0 Z " fill="#B6B0AA" transform="translate(64,88)"/>
<path d="M0 0 C0.66 0 1.32 0 2 0 C2 5.61 2 11.22 2 17 C1.34 17 0.68 17 0 17 C-1.44074715 15.217871 -2.80510649 13.37339724 -4.125 11.5 C-4.84945312 10.4790625 -5.57390625 9.458125 -6.3203125 8.40625 C-6.87460938 7.6121875 -7.42890625 6.818125 -8 6 C-8.33 9.63 -8.66 13.26 -9 17 C-9.66 17 -10.32 17 -11 17 C-11 11.72 -11 6.44 -11 1 C-10.34 1 -9.68 1 -9 1 C-7.56418526 2.61457079 -6.19855217 4.29219075 -4.875 6 C-4.15054688 6.928125 -3.42609375 7.85625 -2.6796875 8.8125 C-2.12539062 9.534375 -1.57109375 10.25625 -1 11 C-0.67 7.37 -0.34 3.74 0 0 Z " fill="#B7B0AA" transform="translate(165,88)"/>
<path d="M0 0 C2.86972996 1.99633389 4.65210765 3.47229883 5.44921875 6.97265625 C5.63063966 10.3195592 5.22262069 12.62896551 3.5 15.5 C-0.04017056 17.62410234 -2.97481725 17.7835909 -7 17 C-9.5 15.5625 -9.5 15.5625 -11 13 C-11.60303852 9.8699429 -11.65919094 7.12399182 -11 4 C-7.79382821 0.13373402 -4.93752469 -0.92578588 0 0 Z M-9 4 C-9.43932865 6.13488276 -9.43932865 6.13488276 -9.3125 8.5 C-9.30863281 9.2940625 -9.30476563 10.088125 -9.30078125 10.90625 C-9.18225165 13.21733036 -9.18225165 13.21733036 -7 15 C-5.08993694 15.3176246 -5.08993694 15.3176246 -3 15.25 C-2.29875 15.25515625 -1.5975 15.2603125 -0.875 15.265625 C1.2435669 15.15705515 1.2435669 15.15705515 3 13 C3.52700664 7.77452214 3.52700664 7.77452214 1.875 3 C-2.19072015 0.83161592 -5.31244139 1.54162759 -9 4 Z " fill="#B4ADA6" transform="translate(51,88)"/>
<path d="M0 0 C0.66 0 1.32 0 2 0 C2.33 1.98 2.66 3.96 3 6 C3.40992188 5.566875 3.81984375 5.13375 4.2421875 4.6875 C4.78101563 4.130625 5.31984375 3.57375 5.875 3 C6.40867188 2.443125 6.94234375 1.88625 7.4921875 1.3125 C9 0 9 0 11 0 C9.54887874 3.3859496 7.58324179 5.41675821 5 8 C5 8.66 5 9.32 5 10 C6.55705194 11.57840572 6.55705194 11.57840572 8.5 13.125 C9.1496875 13.66382812 9.799375 14.20265625 10.46875 14.7578125 C10.9740625 15.16773437 11.479375 15.57765625 12 16 C11.01 16.33 10.02 16.66 9 17 C7.02 15.02 5.04 13.04 3 11 C2.67 12.98 2.34 14.96 2 17 C1.34 17 0.68 17 0 17 C0 11.39 0 5.78 0 0 Z " fill="#B9B2AC" transform="translate(175,88)"/>
<path d="M0 0 C8 0 8 0 10.9375 1.5625 C13.65361118 4.77244958 14 6.82044153 14 11 C12.65437601 13.94755732 11.91445456 15.54277272 9 17 C5.99525503 17.13559318 3.00931153 17.04299016 0 17 C0 11.39 0 5.78 0 0 Z M1 2 C1 6.29 1 10.58 1 15 C6.21648103 15.44308651 6.21648103 15.44308651 11 13.875 C12.504106 11.05480125 12.44912849 9.14389944 12 6 C10.56338689 3.47993156 10.56338689 3.47993156 8 2 C4.3324787 1.66582071 4.3324787 1.66582071 1 2 Z " fill="#B1AAA3" transform="translate(103,88)"/>
<path d="M0 0 C2.33294775 -0.04241723 4.66702567 -0.04092937 7 0 C8 1 8 1 8.125 3.5 C8 6 8 6 7 7 C4.66702567 7.04092937 2.33294775 7.04241723 0 7 C0 4.69 0 2.38 0 0 Z " fill="#FBFBFB" transform="translate(66,90)"/>
<path d="M0 0 C0.66 0 1.32 0 2 0 C2 5.61 2 11.22 2 17 C1.34 17 0.68 17 0 17 C-0.66 15.35 -1.32 13.7 -2 12 C-1.67 12 -1.34 12 -1 12 C-0.67 8.04 -0.34 4.08 0 0 Z " fill="#B1AAA4" transform="translate(165,88)"/>
<path d="M0 0 C0.66 0 1.32 0 2 0 C1.54810561 2.08473947 1.08823175 4.16775036 0.625 6.25 C0.36976562 7.41015625 0.11453125 8.5703125 -0.1484375 9.765625 C-0.85796405 12.46052401 -1.63096389 14.59525832 -3 17 C-3.66 17 -4.32 17 -5 17 C-3.83348574 11.07136283 -2.24480642 5.61201606 0 0 Z " fill="#F97A82" transform="translate(21,88)"/>
<path d="M0 0 C3.1875 -0.4375 3.1875 -0.4375 7 0 C9.11158381 2.08545034 10.56739143 4.41206193 12 7 C8.1796875 6.25 8.1796875 6.25 6.5625 4 C5.12113694 1.74724544 5.12113694 1.74724544 2.3125 1.25 C1.1678125 1.12625 1.1678125 1.12625 0 1 C0 0.67 0 0.34 0 0 Z " fill="#ABA39B" transform="translate(65,98)"/>
<path d="M0 0 C-1.49097658 3.7952131 -3.75700849 5.61042731 -7 8 C-7 5 -7 5 -4.625 2.3125 C-2 0 -2 0 0 0 Z " fill="#BEB8B2" transform="translate(186,88)"/>
</svg>
